<?xml version="1.0" encoding="UTF-8" standalone="no"?>
<!DOCTYPE svg PUBLIC "-//W3C//DTD SVG 1.1//EN"
 "http://www.w3.org/Graphics/SVG/1.1/DTD/svg11.dtd">
<!-- Generated by graphviz version 2.47.0 (20210316.0004)
 -->
<!-- Title: dependencies Pages: 1 -->
<svg width="1239pt" height="284pt"
 viewBox="0.00 0.00 1239.00 284.00" xmlns="http://www.w3.org/2000/svg" xmlns:xlink="http://www.w3.org/1999/xlink">
<g id="graph0" class="graph" transform="scale(1 1) rotate(0) translate(4 280)">
<title>dependencies</title>
<polygon fill="white" stroke="transparent" points="-4,4 -4,-280 1235,-280 1235,4 -4,4"/>
<text text-anchor="start" x="594.51" y="-42.4" font-family="Times-12" font-weight="bold" font-size="14.00">Legend</text>
<polygon fill="#ffffb3" stroke="transparent" points="381.5,-10 381.5,-30 401.5,-30 401.5,-10 381.5,-10"/>
<text text-anchor="start" x="405.13" y="-15.4" font-family="Times-12" font-size="14.00"> &#160;Declarations</text>
<polygon fill="#8dd3c7" stroke="transparent" points="494.5,-10 494.5,-30 514.5,-30 514.5,-10 494.5,-10"/>
<text text-anchor="start" x="518.23" y="-15.4" font-family="Times-12" font-size="14.00"> &#160;Module</text>
<polygon fill="#80b1d3" stroke="transparent" points="580.5,-10 580.5,-30 600.5,-30 600.5,-10 580.5,-10"/>
<text text-anchor="start" x="604.28" y="-15.4" font-family="Times-12" font-size="14.00"> &#160;Bootstrap</text>
<polygon fill="#fdb462" stroke="transparent" points="677.5,-10 677.5,-30 697.5,-30 697.5,-10 677.5,-10"/>
<text text-anchor="start" x="701.17" y="-15.4" font-family="Times-12" font-size="14.00"> &#160;Providers</text>
<polygon fill="#fb8072" stroke="transparent" points="773.5,-10 773.5,-30 793.5,-30 793.5,-10 773.5,-10"/>
<text text-anchor="start" x="797.23" y="-15.4" font-family="Times-12" font-size="14.00"> &#160;Exports</text>
<g id="clust1" class="cluster">
<title>cluster_AppModule</title>
<polygon fill="none" stroke="black" stroke-dasharray="1,5" points="8,-70 8,-268 1223,-268 1223,-70 8,-70"/>
</g>
<g id="clust2" class="cluster">
<title>cluster_AppModule_declarations</title>
<polygon fill="none" stroke="black" points="1093,-78 1093,-130 1215,-130 1215,-78 1093,-78"/>
</g>
<g id="clust4" class="cluster">
<title>cluster_AppModule_imports</title>
<polygon fill="none" stroke="black" points="294,-78 294,-130 1085,-130 1085,-78 294,-78"/>
</g>
<g id="clust6" class="cluster">
<title>cluster_AppModule_bootstrap</title>
<polygon fill="none" stroke="black" points="593,-208 593,-260 717,-260 717,-208 593,-208"/>
</g>
<g id="clust7" class="cluster">
<title>cluster_AppModule_providers</title>
<polygon fill="none" stroke="black" points="16,-78 16,-130 286,-130 286,-78 16,-78"/>
</g>
<!-- AppComponent -->
<g id="node1" class="node">
<title>AppComponent</title>
<polygon fill="#ffffb3" stroke="black" points="1206.94,-122 1101.06,-122 1101.06,-86 1206.94,-86 1206.94,-122"/>
<text text-anchor="middle" x="1154" y="-99.8" font-family="Times,serif" font-size="14.00">AppComponent</text>
</g>
<!-- AppModule -->
<g id="node2" class="node">
<title>AppModule</title>
<polygon fill="#8dd3c7" stroke="black" points="696.66,-187 693.66,-191 672.66,-191 669.66,-187 613.34,-187 613.34,-151 696.66,-151 696.66,-187"/>
<text text-anchor="middle" x="655" y="-164.8" font-family="Times,serif" font-size="14.00">AppModule</text>
</g>
<!-- AppComponent&#45;&gt;AppModule -->
<g id="edge1" class="edge">
<title>AppComponent&#45;&gt;AppModule</title>
<path fill="none" stroke="black" d="M1154,-122.29C1154,-144.21 1154,-178 1154,-178 1154,-178 706.69,-178 706.69,-178"/>
<polygon fill="black" stroke="black" points="706.69,-174.5 696.69,-178 706.69,-181.5 706.69,-174.5"/>
</g>
<!-- AppComponent  -->
<g id="node8" class="node">
<title>AppComponent </title>
<polygon fill="#80b1d3" stroke="black" points="709.44,-252 600.56,-252 600.56,-216 709.44,-216 709.44,-252"/>
<text text-anchor="middle" x="655" y="-229.8" font-family="Times,serif" font-size="14.00">AppComponent </text>
</g>
<!-- AppModule&#45;&gt;AppComponent  -->
<g id="edge7" class="edge">
<title>AppModule&#45;&gt;AppComponent </title>
<path fill="none" stroke="black" stroke-dasharray="1,5" d="M655,-187.11C655,-187.11 655,-205.99 655,-205.99"/>
<polygon fill="black" stroke="black" points="651.5,-205.99 655,-215.99 658.5,-205.99 651.5,-205.99"/>
</g>
<!-- AppRoutingModule -->
<g id="node3" class="node">
<title>AppRoutingModule</title>
<polygon fill="#8dd3c7" stroke="black" points="1077.27,-122 1074.27,-126 1053.27,-126 1050.27,-122 948.73,-122 948.73,-86 1077.27,-86 1077.27,-122"/>
<text text-anchor="middle" x="1013" y="-99.8" font-family="Times,serif" font-size="14.00">AppRoutingModule</text>
</g>
<!-- AppRoutingModule&#45;&gt;AppModule -->
<g id="edge2" class="edge">
<title>AppRoutingModule&#45;&gt;AppModule</title>
<path fill="none" stroke="black" d="M1013,-122.11C1013,-141.34 1013,-169 1013,-169 1013,-169 706.77,-169 706.77,-169"/>
<polygon fill="black" stroke="black" points="706.77,-165.5 696.77,-169 706.77,-172.5 706.77,-165.5"/>
</g>
<!-- DashboardCountriesComponent -->
<g id="node4" class="node">
<title>DashboardCountriesComponent</title>
<polygon fill="#8dd3c7" stroke="black" points="930.41,-122 927.41,-126 906.41,-126 903.41,-122 733.59,-122 733.59,-86 930.41,-86 930.41,-122"/>
<text text-anchor="middle" x="832" y="-99.8" font-family="Times,serif" font-size="14.00">DashboardCountriesComponent</text>
</g>
<!-- DashboardCountriesComponent&#45;&gt;AppModule -->
<g id="edge3" class="edge">
<title>DashboardCountriesComponent&#45;&gt;AppModule</title>
<path fill="none" stroke="black" d="M832,-122.03C832,-138.4 832,-160 832,-160 832,-160 706.95,-160 706.95,-160"/>
<polygon fill="black" stroke="black" points="706.95,-156.5 696.95,-160 706.95,-163.5 706.95,-156.5"/>
</g>
<!-- HeaderComponent -->
<g id="node5" class="node">
<title>HeaderComponent</title>
<polygon fill="#8dd3c7" stroke="black" points="715.74,-122 712.74,-126 691.74,-126 688.74,-122 594.26,-122 594.26,-86 715.74,-86 715.74,-122"/>
<text text-anchor="middle" x="655" y="-99.8" font-family="Times,serif" font-size="14.00">HeaderComponent</text>
</g>
<!-- HeaderComponent&#45;&gt;AppModule -->
<g id="edge4" class="edge">
<title>HeaderComponent&#45;&gt;AppModule</title>
<path fill="none" stroke="black" d="M655,-122.11C655,-122.11 655,-140.99 655,-140.99"/>
<polygon fill="black" stroke="black" points="651.5,-140.99 655,-150.99 658.5,-140.99 651.5,-140.99"/>
</g>
<!-- HttpErrorComponent -->
<g id="node6" class="node">
<title>HttpErrorComponent</title>
<polygon fill="#8dd3c7" stroke="black" points="575.75,-122 572.75,-126 551.75,-126 548.75,-122 440.25,-122 440.25,-86 575.75,-86 575.75,-122"/>
<text text-anchor="middle" x="508" y="-99.8" font-family="Times,serif" font-size="14.00">HttpErrorComponent</text>
</g>
<!-- HttpErrorComponent&#45;&gt;AppModule -->
<g id="edge5" class="edge">
<title>HttpErrorComponent&#45;&gt;AppModule</title>
<path fill="none" stroke="black" d="M508,-122.03C508,-138.4 508,-160 508,-160 508,-160 603.27,-160 603.27,-160"/>
<polygon fill="black" stroke="black" points="603.27,-163.5 613.27,-160 603.27,-156.5 603.27,-163.5"/>
</g>
<!-- LoaderComponent -->
<g id="node7" class="node">
<title>LoaderComponent</title>
<polygon fill="#8dd3c7" stroke="black" points="422.47,-122 419.47,-126 398.47,-126 395.47,-122 301.53,-122 301.53,-86 422.47,-86 422.47,-122"/>
<text text-anchor="middle" x="362" y="-99.8" font-family="Times,serif" font-size="14.00">LoaderComponent</text>
</g>
<!-- LoaderComponent&#45;&gt;AppModule -->
<g id="edge6" class="edge">
<title>LoaderComponent&#45;&gt;AppModule</title>
<path fill="none" stroke="black" d="M362,-122.11C362,-141.34 362,-169 362,-169 362,-169 603.33,-169 603.33,-169"/>
<polygon fill="black" stroke="black" points="603.33,-172.5 613.33,-169 603.33,-165.5 603.33,-172.5"/>
</g>
<!-- LoaderHttpInterceptorService -->
<g id="node9" class="node">
<title>LoaderHttpInterceptorService</title>
<ellipse fill="#fdb462" stroke="black" cx="151" cy="-104" rx="126.72" ry="18"/>
<text text-anchor="middle" x="151" y="-99.8" font-family="Times,serif" font-size="14.00">LoaderHttpInterceptorService</text>
</g>
<!-- LoaderHttpInterceptorService&#45;&gt;AppModule -->
<g id="edge8" class="edge">
<title>LoaderHttpInterceptorService&#45;&gt;AppModule</title>
<path fill="none" stroke="black" d="M151,-122.29C151,-144.21 151,-178 151,-178 151,-178 603.33,-178 603.33,-178"/>
<polygon fill="black" stroke="black" points="603.33,-181.5 613.33,-178 603.33,-174.5 603.33,-181.5"/>
</g>
</g>
</svg>
