<?xml version="1.0" encoding="UTF-8" standalone="no"?>
<!DOCTYPE svg PUBLIC "-//W3C//DTD SVG 1.1//EN"
 "http://www.w3.org/Graphics/SVG/1.1/DTD/svg11.dtd">
<!-- Generated by graphviz version 2.47.0 (20210316.0004)
 -->
<!-- Title: dependencies Pages: 1 -->
<svg width="1242pt" height="284pt"
 viewBox="0.00 0.00 1242.00 284.00" xmlns="http://www.w3.org/2000/svg" xmlns:xlink="http://www.w3.org/1999/xlink">
<g id="graph0" class="graph" transform="scale(1 1) rotate(0) translate(4 280)">
<title>dependencies</title>
<polygon fill="white" stroke="transparent" points="-4,4 -4,-280 1238,-280 1238,4 -4,4"/>
<text text-anchor="start" x="596.01" y="-42.4" font-family="Times-12" font-weight="bold" font-size="14.00">Legend</text>
<polygon fill="#ffffb3" stroke="transparent" points="383,-10 383,-30 403,-30 403,-10 383,-10"/>
<text text-anchor="start" x="406.63" y="-15.4" font-family="Times-12" font-size="14.00"> &#160;Declarations</text>
<polygon fill="#8dd3c7" stroke="transparent" points="496,-10 496,-30 516,-30 516,-10 496,-10"/>
<text text-anchor="start" x="519.73" y="-15.4" font-family="Times-12" font-size="14.00"> &#160;Module</text>
<polygon fill="#80b1d3" stroke="transparent" points="582,-10 582,-30 602,-30 602,-10 582,-10"/>
<text text-anchor="start" x="605.78" y="-15.4" font-family="Times-12" font-size="14.00"> &#160;Bootstrap</text>
<polygon fill="#fdb462" stroke="transparent" points="679,-10 679,-30 699,-30 699,-10 679,-10"/>
<text text-anchor="start" x="702.67" y="-15.4" font-family="Times-12" font-size="14.00"> &#160;Providers</text>
<polygon fill="#fb8072" stroke="transparent" points="775,-10 775,-30 795,-30 795,-10 775,-10"/>
<text text-anchor="start" x="798.73" y="-15.4" font-family="Times-12" font-size="14.00"> &#160;Exports</text>
<g id="clust1" class="cluster">
<title>cluster_AppModule</title>
<polygon fill="none" stroke="black" stroke-dasharray="1,5" points="8,-70 8,-268 1226,-268 1226,-70 8,-70"/>
</g>
<g id="clust2" class="cluster">
<title>cluster_AppModule_declarations</title>
<polygon fill="none" stroke="black" points="1096,-78 1096,-130 1218,-130 1218,-78 1096,-78"/>
</g>
<g id="clust4" class="cluster">
<title>cluster_AppModule_imports</title>
<polygon fill="none" stroke="black" points="294,-78 294,-130 1088,-130 1088,-78 294,-78"/>
</g>
<g id="clust6" class="cluster">
<title>cluster_AppModule_bootstrap</title>
<polygon fill="none" stroke="black" points="596,-208 596,-260 720,-260 720,-208 596,-208"/>
</g>
<g id="clust7" class="cluster">
<title>cluster_AppModule_providers</title>
<polygon fill="none" stroke="black" points="16,-78 16,-130 286,-130 286,-78 16,-78"/>
</g>
<!-- AppComponent -->
<g id="node1" class="node">
<title>AppComponent</title>
<polygon fill="#ffffb3" stroke="black" points="1209.94,-122 1104.06,-122 1104.06,-86 1209.94,-86 1209.94,-122"/>
<text text-anchor="middle" x="1157" y="-99.8" font-family="Times,serif" font-size="14.00">AppComponent</text>
</g>
<!-- AppModule -->
<g id="node2" class="node">
<title>AppModule</title>
<polygon fill="#8dd3c7" stroke="black" points="699.66,-187 696.66,-191 675.66,-191 672.66,-187 616.34,-187 616.34,-151 699.66,-151 699.66,-187"/>
<text text-anchor="middle" x="658" y="-164.8" font-family="Times,serif" font-size="14.00">AppModule</text>
</g>
<!-- AppComponent&#45;&gt;AppModule -->
<g id="edge1" class="edge">
<title>AppComponent&#45;&gt;AppModule</title>
<path fill="none" stroke="black" d="M1157,-122.29C1157,-144.21 1157,-178 1157,-178 1157,-178 709.69,-178 709.69,-178"/>
<polygon fill="black" stroke="black" points="709.69,-174.5 699.69,-178 709.69,-181.5 709.69,-174.5"/>
</g>
<!-- AppComponent  -->
<g id="node8" class="node">
<title>AppComponent </title>
<polygon fill="#80b1d3" stroke="black" points="712.44,-252 603.56,-252 603.56,-216 712.44,-216 712.44,-252"/>
<text text-anchor="middle" x="658" y="-229.8" font-family="Times,serif" font-size="14.00">AppComponent </text>
</g>
<!-- AppModule&#45;&gt;AppComponent  -->
<g id="edge7" class="edge">
<title>AppModule&#45;&gt;AppComponent </title>
<path fill="none" stroke="black" stroke-dasharray="1,5" d="M658,-187.11C658,-187.11 658,-205.99 658,-205.99"/>
<polygon fill="black" stroke="black" points="654.5,-205.99 658,-215.99 661.5,-205.99 654.5,-205.99"/>
</g>
<!-- AppRoutingModule -->
<g id="node3" class="node">
<title>AppRoutingModule</title>
<polygon fill="#8dd3c7" stroke="black" points="1080.27,-122 1077.27,-126 1056.27,-126 1053.27,-122 951.73,-122 951.73,-86 1080.27,-86 1080.27,-122"/>
<text text-anchor="middle" x="1016" y="-99.8" font-family="Times,serif" font-size="14.00">AppRoutingModule</text>
</g>
<!-- AppRoutingModule&#45;&gt;AppModule -->
<g id="edge2" class="edge">
<title>AppRoutingModule&#45;&gt;AppModule</title>
<path fill="none" stroke="black" d="M1016,-122.11C1016,-141.34 1016,-169 1016,-169 1016,-169 709.77,-169 709.77,-169"/>
<polygon fill="black" stroke="black" points="709.77,-165.5 699.77,-169 709.77,-172.5 709.77,-165.5"/>
</g>
<!-- DashboardCountriesComponent -->
<g id="node4" class="node">
<title>DashboardCountriesComponent</title>
<polygon fill="#8dd3c7" stroke="black" points="933.41,-122 930.41,-126 909.41,-126 906.41,-122 736.59,-122 736.59,-86 933.41,-86 933.41,-122"/>
<text text-anchor="middle" x="835" y="-99.8" font-family="Times,serif" font-size="14.00">DashboardCountriesComponent</text>
</g>
<!-- DashboardCountriesComponent&#45;&gt;AppModule -->
<g id="edge3" class="edge">
<title>DashboardCountriesComponent&#45;&gt;AppModule</title>
<path fill="none" stroke="black" d="M835,-122.03C835,-138.4 835,-160 835,-160 835,-160 709.95,-160 709.95,-160"/>
<polygon fill="black" stroke="black" points="709.95,-156.5 699.95,-160 709.95,-163.5 709.95,-156.5"/>
</g>
<!-- HeaderComponent -->
<g id="node5" class="node">
<title>HeaderComponent</title>
<polygon fill="#8dd3c7" stroke="black" points="718.74,-122 715.74,-126 694.74,-126 691.74,-122 597.26,-122 597.26,-86 718.74,-86 718.74,-122"/>
<text text-anchor="middle" x="658" y="-99.8" font-family="Times,serif" font-size="14.00">HeaderComponent</text>
</g>
<!-- HeaderComponent&#45;&gt;AppModule -->
<g id="edge4" class="edge">
<title>HeaderComponent&#45;&gt;AppModule</title>
<path fill="none" stroke="black" d="M658,-122.11C658,-122.11 658,-140.99 658,-140.99"/>
<polygon fill="black" stroke="black" points="654.5,-140.99 658,-150.99 661.5,-140.99 654.5,-140.99"/>
</g>
<!-- LoaderComponent -->
<g id="node6" class="node">
<title>LoaderComponent</title>
<polygon fill="#8dd3c7" stroke="black" points="579.47,-122 576.47,-126 555.47,-126 552.47,-122 458.53,-122 458.53,-86 579.47,-86 579.47,-122"/>
<text text-anchor="middle" x="519" y="-99.8" font-family="Times,serif" font-size="14.00">LoaderComponent</text>
</g>
<!-- LoaderComponent&#45;&gt;AppModule -->
<g id="edge5" class="edge">
<title>LoaderComponent&#45;&gt;AppModule</title>
<path fill="none" stroke="black" d="M519,-122.03C519,-138.4 519,-160 519,-160 519,-160 606.3,-160 606.3,-160"/>
<polygon fill="black" stroke="black" points="606.3,-163.5 616.3,-160 606.3,-156.5 606.3,-163.5"/>
</g>
<!-- NotFoundComponent -->
<g id="node7" class="node">
<title>NotFoundComponent</title>
<polygon fill="#8dd3c7" stroke="black" points="440.11,-122 437.11,-126 416.11,-126 413.11,-122 301.89,-122 301.89,-86 440.11,-86 440.11,-122"/>
<text text-anchor="middle" x="371" y="-99.8" font-family="Times,serif" font-size="14.00">NotFoundComponent</text>
</g>
<!-- NotFoundComponent&#45;&gt;AppModule -->
<g id="edge6" class="edge">
<title>NotFoundComponent&#45;&gt;AppModule</title>
<path fill="none" stroke="black" d="M371,-122.11C371,-141.34 371,-169 371,-169 371,-169 606.27,-169 606.27,-169"/>
<polygon fill="black" stroke="black" points="606.27,-172.5 616.27,-169 606.27,-165.5 606.27,-172.5"/>
</g>
<!-- LoaderHttpInterceptorService -->
<g id="node9" class="node">
<title>LoaderHttpInterceptorService</title>
<ellipse fill="#fdb462" stroke="black" cx="151" cy="-104" rx="126.72" ry="18"/>
<text text-anchor="middle" x="151" y="-99.8" font-family="Times,serif" font-size="14.00">LoaderHttpInterceptorService</text>
</g>
<!-- LoaderHttpInterceptorService&#45;&gt;AppModule -->
<g id="edge8" class="edge">
<title>LoaderHttpInterceptorService&#45;&gt;AppModule</title>
<path fill="none" stroke="black" d="M151,-122.29C151,-144.21 151,-178 151,-178 151,-178 606.08,-178 606.08,-178"/>
<polygon fill="black" stroke="black" points="606.08,-181.5 616.08,-178 606.08,-174.5 606.08,-181.5"/>
</g>
</g>
</svg>
